<?xml version="1.0" encoding="UTF-8"?>
<svg width="159px" height="50px" viewBox="0 0 159 50" version="1.1" xmlns="http://www.w3.org/2000/svg" xmlns:xlink="http://www.w3.org/1999/xlink">
    <!-- Generator: Sketch 51.2 (57519) - http://www.bohemiancoding.com/sketch -->
    <title>Page 1</title>
    <desc>Created with Sketch.</desc>
    <defs>
        <polygon id="path-1" points="0 0.119320113 49.9881408 0.119320113 49.9881408 50 0 50"></polygon>
    </defs>
    <g id="Symbols" stroke="none" stroke-width="1" fill="none" fill-rule="evenodd">
        <g id="nav/light" transform="translate(0.000000, -15.000000)">
            <g id="Nav">
                <g id="Page-1" transform="translate(0.000000, 15.000000)">
                    <path d="M66.5659473,19.5582604 C62.3675487,19.5582604 59.8662083,23.4968265 59.8662083,27.3410642 C59.8662083,30.2243133 61.4662225,32.3434454 64.499666,32.3434454 C68.6990622,32.3434454 71.1984075,28.404596 71.1984075,24.5603583 C71.1984075,21.6772509 69.5982508,19.5582604 66.5659473,19.5582604 Z M74,18.2654226 L71.9317237,31.1190171 C71.8315446,31.7160056 71.8315446,32.1784415 71.8315446,32.5423 C71.8315446,33.2380076 71.9317237,33.6361415 71.9317237,33.6361415 L70.1656944,33.6361415 C70.1656944,33.6361415 70.0655154,33.2703002 70.0655154,32.5765755 C70.0655154,32.1784415 70.1323489,31.5170094 70.1656944,31.2838794 L70.2325279,30.9198793 L70.1980424,30.9198793 C68.7325502,32.8058814 66.6661263,34 64.2659625,34 C60.1666028,34 58,31.3501642 58,27.540202 C58,22.4412262 61.5320585,18 66.7308223,18 C68.9994567,18 70.733138,19.0254322 71.7647111,21.0459869 L71.7991966,21.0459869 L72.2321182,18.2654226 L74,18.2654226 Z" id="Fill-1" fill="#FFFFFF"></path>
                    <path d="M95.3504442,14.7474313 C94.656748,14.7474313 94.1633056,14.2253179 94.1633056,13.5747657 C94.1633056,12.694779 94.9550134,11.8820763 95.8117332,11.8820763 C96.5045833,11.8820763 97,12.4337223 97,13.0844137 C97,13.9642612 96.2404456,14.7474313 95.3504442,14.7474313 Z M93.4697504,32.7326218 C93.4697504,33.4170249 93.5687491,33.8084707 93.5687491,33.8084707 L91.8211818,33.8084707 C91.8211818,33.8084707 91.722042,33.4486471 91.722042,32.7663335 C91.722042,32.3747484 91.7540544,31.8527743 91.8530532,31.2990388 L93.5026089,20.9705827 C93.5687491,20.4841313 93.6018897,20.0926856 93.6018897,19.7327226 C93.6018897,19.0505483 93.5026089,18.6589633 93.5026089,18.6589633 L95.2183049,18.6589633 C95.2183049,18.6589633 95.3164575,19.0168366 95.3164575,19.7009612 C95.3164575,20.0926856 95.2844451,20.6127094 95.1843181,21.2000173 L93.5347624,31.5284734 C93.4697504,31.949591 93.4697504,32.3747484 93.4697504,32.7326218 Z M82.6845297,40 C82.6845297,40 83.2119588,39.0231966 83.4430969,37.6509076 L86.2456635,20.3219808 L80.27824,20.3219808 L77.5395572,37.4569957 C77.2731632,39.0864409 76.7137216,40 76.7137216,40 L75,40 C75,40 75.5255958,39.0231966 75.7578621,37.6509076 L78.5604287,20.3219808 L76.3512904,20.3219808 L76.6145819,18.7241578 L78.8247074,18.7241578 C79.2881117,15.7263242 79.7816951,11 84.0366662,11 C84.4982372,11 85.686222,11.0337117 86.0816528,11.3283408 L85.686222,12.8588797 C85.1908052,12.6610673 84.6312227,12.5326285 84.1016782,12.5326285 C80.9366803,12.5326285 80.9026936,16.5054545 80.5404033,18.7241578 L86.5099422,18.7241578 C86.9725004,15.7263242 87.4679171,11 91.722042,11 C92.1823438,11 93.3706106,11.0337117 93.7668876,11.3283408 L93.3706106,12.8588797 C92.8761811,12.6610673 92.3154703,12.5326285 91.7880412,12.5326285 C88.6220561,12.5326285 88.5880694,16.5054545 88.2257792,18.7241578 L91.9521929,18.7241578 L91.6879143,20.3219808 L87.9613595,20.3219808 L85.224792,37.4569957 C84.9605133,39.0864409 84.3990974,40 84.3990974,40 L82.6845297,40 Z" id="Fill-3" fill="#FFFFFF"></path>
                    <path d="M99.8275526,33.8514206 C99.8275526,34.5819427 99.9312216,35 99.9312216,35 L98.1016044,35 C98.1016044,35 98,34.6158513 98,33.8874113 C98,33.469354 98.0324426,32.912093 98.1392084,32.3207746 L101.102401,13.4702711 C101.172595,12.9466212 101.20607,12.530646 101.20607,12.1484307 C101.20607,11.4180573 101.102401,11 101.102401,11 L102.896478,11 C102.896478,11 103,11.3820666 103,12.1125887 C103,12.530646 102.965345,13.0837428 102.862856,13.7107545 L99.8956822,32.5657196 C99.8275526,33.0154547 99.8275526,33.469354 99.8275526,33.8514206" id="Fill-5" fill="#FFFFFF"></path>
                    <path d="M108.436381,14.0056544 C107.782157,14.0056544 107.314701,13.4579762 107.314701,12.7755704 C107.314701,11.8524959 108.061775,11 108.876316,11 C109.532411,11 110,11.5786568 110,12.2612088 C110,13.1841371 109.282184,14.0056544 108.436381,14.0056544 M106.657538,32.8714731 C106.657538,33.5893875 106.751456,34 106.751456,34 L105.093785,34 C105.093785,34 105,33.622558 105,32.9068355 C105,32.4960768 105.031262,31.9485448 105.12518,31.3676961 L106.688799,20.5335167 C106.751456,20.0232467 106.780714,19.6126341 106.780714,19.235046 C106.780714,18.5194696 106.688799,18.108711 106.688799,18.108711 L108.31414,18.108711 C108.31414,18.108711 108.40699,18.4841073 108.40699,19.2017294 C108.40699,19.6126341 108.374793,20.1581204 108.281943,20.7741854 L106.719126,31.6083647 C106.657538,32.050102 106.657538,32.4960768 106.657538,32.8714731" id="Fill-7" fill="#FFFFFF"></path>
                    <path d="M119.567484,19.5582604 C115.367122,19.5582604 112.867429,23.4968265 112.867429,27.3410642 C112.867429,30.2243133 114.4679,32.3434454 117.500797,32.3434454 C121.700161,32.3434454 124.201992,28.404596 124.201992,24.5603583 C124.201992,21.6772509 122.600524,19.5582604 119.567484,19.5582604 Z M127,18.2654226 L124.933314,31.1190171 C124.833115,31.7160056 124.833115,32.1784415 124.833115,32.5423 C124.833115,33.2380076 124.933314,33.6361415 124.933314,33.6361415 L123.166938,33.6361415 C123.166938,33.6361415 123.066882,33.2703002 123.066882,32.5765755 C123.066882,32.1784415 123.134584,31.5170094 123.166938,31.2838794 L123.233785,30.9198793 L123.201288,30.9198793 C121.734511,32.8058814 119.667682,34 117.267048,34 C113.166885,34 111,31.3501642 111,27.540202 C111,22.4412262 114.533606,18 119.733531,18 C122.000615,18 123.732498,19.0254322 124.767409,21.0459869 L124.801901,21.0459869 L125.233767,18.2654226 L127,18.2654226 Z" id="Fill-9" fill="#FFFFFF"></path>
                    <path d="M135.233148,18.9791112 L139,18.9791112 L138.734929,20.6402149 L134.96708,20.6402149 L133.732079,28.7319766 C133.601539,29.5460188 133.433661,30.360061 133.433661,31.2071225 C133.433661,32.3932113 133.80077,33.3390411 135.134958,33.3390411 C135.701297,33.3390411 136.333618,33.170324 136.83426,32.9011006 L136.733077,34.490228 C136.10104,34.864447 135.101468,35 134.399601,35 C132.467579,35 131.601824,33.7461346 131.601824,31.9164586 C131.601824,28.8017806 132.83483,23.2798781 133.233291,20.6402149 L131,20.6402149 L131.234573,18.9791112 L133.501496,18.9791112 L133.900812,16.401142 C133.966652,15.8933975 134.000998,15.486304 134.000998,15.1183123 C134.000998,14.4027489 133.900812,14 133.900812,14 L135.632607,14 C135.632607,14 135.733932,14.3720467 135.733932,15.0792105 C135.733932,15.486304 135.701297,16.0311229 135.602252,16.6395184 L135.233148,18.9791112 Z" id="Fill-11" fill="#FFFFFF"></path>
                    <path d="M143.39263,25.0369345 C146.915943,25.0369345 150.166595,24.0417953 150.166595,21.7532021 C150.166595,20.5565372 148.751565,19.4927089 146.606336,19.4927089 C142.873318,19.4927089 140.766069,22.7141387 140.315033,24.8718822 C141.456071,25.0027319 142.493513,25.0369345 143.39263,25.0369345 M139.900647,27.6278162 C139.900647,30.5793152 141.526564,32.4407309 144.533816,32.4407309 C147.954271,32.4407309 150.201028,30.4481817 150.236792,30.4481817 L150.858814,31.6752173 C150.858814,31.6752173 148.543781,34 144.082632,34 C140.246904,34 138,31.3106262 138,27.4585063 C138,21.8841937 142.390804,18 146.987174,18 C150.272555,18 152,19.8936314 152,21.8177754 C152,24.1405712 149.474228,26.562143 143.288738,26.562143 C142.287059,26.562143 141.213854,26.4975696 140.004539,26.3667199 C139.936263,26.7957424 139.900647,27.2288806 139.900647,27.6278162" id="Fill-13" fill="#FFFFFF"></path>
                    <polygon id="Fill-15" fill="#FFFFFF" points="154.746823 19 154.746823 16.50745 154 16.50745 154 16 156 16 156 16.50745 155.254939 16.50745 155.254939 19"></polygon>
                    <polygon id="Fill-17" fill="#FFFFFF" points="156 19 156 16 156.9385 16 157.502252 18.04645 158.059481 16 159 16 159 19 158.417456 19 158.417456 16.63855 157.800901 19 157.19708 19 156.582699 16.63855 156.582699 19"></polygon>
                    <g id="Group-21">
                        <mask id="mask-2" fill="white">
                            <use xlink:href="#path-1"></use>
                        </mask>
                        <g id="Clip-20"></g>
                        <path d="M24.9947606,3.00600567 C12.7954648,3.00600567 2.86870423,12.897932 2.86870423,25.0596884 C2.86870423,37.219745 12.7954648,47.1133711 24.9947606,47.1133711 C37.1941972,47.1133711 47.1185634,37.219745 47.1185634,25.0596884 C47.1185634,12.897932 37.1941972,3.00600567 24.9947606,3.00600567 M24.9947606,50.0000567 C11.2132113,50.0000567 -2.81690141e-05,38.8109632 -2.81690141e-05,25.0596884 C-2.81690141e-05,11.3068555 11.2132113,0.119320113 24.9947606,0.119320113 C38.7764507,0.119320113 49.9881408,11.3068555 49.9881408,25.0596884 C49.9881408,38.8109632 38.7764507,50.0000567 24.9947606,50.0000567" id="Fill-19" fill="#FFFFFF" mask="url(#mask-2)"></path>
                    </g>
                    <path d="M21.4761258,23.5864569 L30.5752685,23.5864569 C30.5752685,23.5864569 28.6866305,32.9764701 28.6841668,33.011909 C28.5741701,33.4767925 28.2262097,34.1620887 27.5707225,34.6897827 L27.5085505,34.747695 C26.9946531,35.1448701 26.2906166,35.4554647 25.3552828,35.4554647 L18.9450436,35.4554647 C18.7428759,36.4078492 18.2750641,38.6599484 18,40 L24.0022806,40 C32.4483997,40 34.1137113,32.8476799 34.1758833,32.5598469 C34.1758833,32.5598469 36.5897227,20.9883242 37,19 C35.0215096,19 23.7693892,19.0242022 22.4211695,19.0242022 C22.2287116,19.9765867 21.7601751,22.2416513 21.4761258,23.5864569" id="Fill-22" fill="#FFFFFF"></path>
                    <path d="M25.7293615,32 C25.9261,31.0499646 26.3703348,28.7889727 26.6474746,27.432522 L20.8163513,27.432522 C20.6913447,27.432522 19.7826,27.3714298 19.0753481,26.7778381 C18.9667014,26.6810726 18.8581946,26.5762192 18.7645096,26.4488353 C18.7520648,26.4407474 18.7457726,26.4342483 18.738082,26.4164838 C18.1852006,25.689298 18.3398508,24.7457618 18.3757867,24.5425541 C18.3757867,24.5425541 19.6810846,18.0220009 19.6834617,17.9945599 C19.7919685,17.5302298 20.1253194,16.8624031 20.7429414,16.3286039 L20.8490711,16.2399263 C21.351055,15.8463649 22.0148204,15.5560683 22.9055272,15.5560683 L29.0895774,15.5560683 C29.2793245,14.5900016 29.7329278,12.3418636 30,11 L24.2062108,11 C16.0554744,11 14.4542996,18.1495292 14.3846651,18.4477693 L13.0887356,24.9489694 C13.0817442,24.9811765 12.5469006,27.9761422 14.1879265,30.0002751 C15.263067,31.328996 17.0601414,32 19.5476884,32 L25.7293615,32 Z" id="Fill-24" fill="#FFFFFF"></path>
                </g>
            </g>
        </g>
    </g>
</svg>