<?xml version="1.0" encoding="utf-8"?>
<!-- Generator: Adobe Illustrator 23.0.3, SVG Export Plug-In . SVG Version: 6.00 Build 0)  -->
<svg version="1.1" id="Camada_1" xmlns="http://www.w3.org/2000/svg" xmlns:xlink="http://www.w3.org/1999/xlink" x="0px" y="0px"
	 viewBox="0 0 46 50" style="enable-background:new 0 0 46 50;" xml:space="preserve">
<style type="text/css">
	.st0{fill:#002E6E;}
</style>
<g>
	<path class="st0" d="M40.6,3.7c-0.3-0.2-0.7,0-0.9,0.3l-2.6,5.4l-1.2-2.1C35.7,6.9,35.3,6.8,35,7s-0.4,0.6-0.3,0.9l1.8,3.3
		c0.1,0.2,0.3,0.4,0.6,0.4l0,0c0.3,0,0.5-0.2,0.6-0.4l3.2-6.6C41.1,4.3,40.9,3.9,40.6,3.7z"/>
	<g>
		<g>
			<g>
				<path class="st0" d="M22.7,4.6c-0.3-2.2-2.2-3.9-4.5-3.9c-1.4,0-2.8,0.7-3.7,1.9c-0.2,0.2-0.1,0.6,0.1,0.7
					c0.2,0.2,0.6,0.1,0.7-0.1c0.6-0.9,1.7-1.4,2.8-1.4c1.7,0,3.2,1.3,3.4,3c0,0.3,0.3,0.5,0.5,0.5h0.1C22.6,5.1,22.8,4.8,22.7,4.6z"
					/>
			</g>
		</g>
		<g>
			<g>
				<path class="st0" d="M30.4,10.5l-1.6-2.7c-0.1-0.2-0.3-0.3-0.5-0.3h-1.5c-0.3,0-0.5,0.2-0.5,0.5s0.2,0.5,0.5,0.5H28l1,1.6H7.5
					l1-1.6H9c0.3,0,0.5-0.2,0.5-0.5S9.3,7.5,9,7.5H8.2C8,7.6,7.8,7.7,7.7,7.8l-1.6,2.7C6,10.7,6,10.9,6.1,11
					c0.1,0.2,0.3,0.3,0.5,0.3H30c0.2,0,0.4-0.1,0.5-0.3C30.5,10.9,30.5,10.7,30.4,10.5z"/>
			</g>
		</g>
		<g>
			<g>
				<path class="st0" d="M27.8,5.6c-0.1-0.1-0.2-0.2-0.3-0.2l-7.2-1.7c-0.1,0-0.3,0-0.4,0.1S19.7,4,19.7,4.1L19,6.4
					C18.9,6.7,19.1,7,19.4,7C19.7,7.1,20,6.9,20,6.6l0.4-1.8l6.2,1.5l-1,4.2c-0.1,0.3,0.1,0.6,0.4,0.6h0.1c0.2,0,0.5-0.2,0.5-0.4
					L27.8,6C27.9,5.9,27.9,5.7,27.8,5.6z"/>
			</g>
		</g>
		<g>
			<g>
				<path class="st0" d="M18.6,6.9l-0.5-4.1c0-0.1-0.1-0.3-0.2-0.4c-0.1-0.1-0.3-0.1-0.4-0.1l-8.9,1c-0.3,0-0.5,0.3-0.5,0.6l0.8,6.8
					c0,0.3,0.3,0.5,0.5,0.5c0,0,0,0,0.1,0c0.3,0,0.5-0.3,0.5-0.6L9.2,4.3L17,3.4L17.5,7c0,0.3,0.3,0.5,0.6,0.5
					C18.4,7.4,18.6,7.1,18.6,6.9z"/>
			</g>
		</g>
		<g>
			<g>
				<path class="st0" d="M22.8,10.6l-1.1-4.4c0-0.1-0.1-0.3-0.2-0.3c-0.1-0.1-0.3-0.1-0.4-0.1l-8.6,2.1C12.2,8,12,8.3,12.1,8.5
					l0.5,2.2c0.1,0.3,0.4,0.5,0.6,0.4c0.3-0.1,0.5-0.4,0.4-0.6l-0.4-1.7L20.8,7l0.9,3.9c0.1,0.2,0.3,0.4,0.5,0.4h0.1
					C22.7,11.1,22.8,10.9,22.8,10.6z"/>
			</g>
		</g>
		<g>
			<g>
				<path class="st0" d="M30.5,10.8c0-0.3-0.2-0.5-0.5-0.5H6.6c-0.3,0-0.5,0.2-0.5,0.5L5,31.5c0,0.1,0,0.3,0.1,0.4s0.2,0.2,0.4,0.2
					H31c0.1,0,0.3-0.1,0.4-0.2s0.2-0.2,0.1-0.4L30.5,10.8z M6.1,31l1-19.7h22.4l1,19.7H6.1z"/>
			</g>
		</g>
		<g>
			<g>
				<path class="st0" d="M22.3,12.4c-0.9,0-1.6,0.7-1.6,1.6s0.7,1.6,1.6,1.6s1.6-0.7,1.6-1.6C23.9,13.1,23.1,12.4,22.3,12.4z
					 M22.3,14.5c-0.3,0-0.5-0.2-0.5-0.5s0.2-0.5,0.5-0.5s0.5,0.2,0.5,0.5S22.6,14.5,22.3,14.5z"/>
			</g>
		</g>
		<g>
			<g>
				<path class="st0" d="M14.3,12.4c-0.9,0-1.6,0.7-1.6,1.6s0.7,1.6,1.6,1.6c0.9,0,1.6-0.7,1.6-1.6C15.9,13.1,15.2,12.4,14.3,12.4z
					 M14.3,14.5c-0.3,0-0.5-0.2-0.5-0.5s0.2-0.5,0.5-0.5s0.5,0.2,0.5,0.5S14.6,14.5,14.3,14.5z"/>
			</g>
		</g>
		<g>
			<g>
				<path class="st0" d="M22.3,14L22.3,14c-0.3,0-0.6,0.2-0.6,0.5c0,0.1,0,0.1,0,0.2v2.7c0,1.9-1.6,3.5-3.5,3.5s-3.5-1.6-3.5-3.5
					v-2.9c0-0.3-0.2-0.5-0.5-0.5s-0.5,0.2-0.5,0.5v2.9c0,2.5,2,4.5,4.5,4.5s4.5-2,4.5-4.5v-2.9C22.8,14.2,22.6,14,22.3,14z"/>
			</g>
		</g>
	</g>
	<path class="st0" d="M37.8,14.1c-3.9,0-7.1-3.2-7.1-7.1s3.2-7,7.1-7s7.1,3.2,7.1,7.1S41.7,14.1,37.8,14.1z M37.8,1.4
		c-3.1,0-5.7,2.5-5.7,5.7s2.5,5.7,5.7,5.7s5.7-2.5,5.7-5.7S40.9,1.4,37.8,1.4z"/>
	<path class="st0" d="M44.8,6.2c0,0.3,0.1,0.6,0.1,0.9c0,0.6-0.1,1.2-0.2,1.7c0,0.2,0.1,0.4,0.1,0.6v21.9H1.3V9.4
		c0-2,1.6-3.7,3.7-3.7h3.4L8.2,4.4H5c-2.7,0-5,2.2-5,5v26.4c0,2.7,2.2,5,5,5h17.4v8h-8.3c-0.9,0-0.9,1.3,0,1.3h18.4
		c0.9,0,0.9-1.3,0-1.3h-8.8v-8H41c2.7,0,5-2.2,5-5V9.4C46,8.1,45.5,7,44.8,6.2z M44.7,35.8c0,2-1.6,3.7-3.7,3.7H5
		c-2,0-3.7-1.6-3.7-3.7v-3.2h43.4V35.8z"/>
	<path class="st0" d="M31.3,4.4h-7.9l4.1,1c0.1,0,0.3,0.1,0.3,0.2v0.1h3.1C31,5.2,31.1,4.8,31.3,4.4z"/>
</g>
</svg>
