<?xml version="1.0" encoding="utf-8"?>
<!-- Generator: Adobe Illustrator 23.0.3, SVG Export Plug-In . SVG Version: 6.00 Build 0)  -->
<svg version="1.1" id="Camada_1" xmlns="http://www.w3.org/2000/svg" xmlns:xlink="http://www.w3.org/1999/xlink" x="0px" y="0px"
	 viewBox="0 0 512 512" style="enable-background:new 0 0 512 512;" xml:space="preserve">
<style type="text/css">
	.st0{fill:#002E6E;}
	.st1{fill:#FFFFFF;}
</style>
<g>
	<circle class="st0" cx="286" cy="377" r="11.5"/>
	<path class="st1" d="M286,369c4.4,0,8,3.6,8,8s-3.6,8-8,8s-8-3.6-8-8S281.6,369,286,369 M286,362c-8.3,0-15,6.7-15,15s6.7,15,15,15
		s15-6.7,15-15S294.3,362,286,362L286,362z"/>
</g>
<g>
	<circle class="st0" cx="436" cy="437" r="11.5"/>
	<path class="st1" d="M436,429c4.4,0,8,3.6,8,8s-3.6,8-8,8s-8-3.6-8-8S431.6,429,436,429 M436,422c-8.3,0-15,6.7-15,15s6.7,15,15,15
		s15-6.7,15-15S444.3,422,436,422L436,422z"/>
</g>
<path class="st0" d="M15,508.5c-6.3,0-11.5-5.2-11.5-11.5V15C3.5,8.7,8.7,3.5,15,3.5h482c6.3,0,11.5,5.2,11.5,11.5v482
	c0,6.3-5.2,11.5-11.5,11.5H15z M30,146.5c-1.9,0-3.5,1.6-3.5,3.5v332c0,1.9,1.6,3.5,3.5,3.5h452c1.9,0,3.5-1.6,3.5-3.5V150
	c0-1.9-1.6-3.5-3.5-3.5H30z M391,26.5c-1.9,0-3.5,1.6-3.5,3.5v90c0,1.9,1.6,3.5,3.5,3.5h91c1.9,0,3.5-1.6,3.5-3.5V30
	c0-1.9-1.6-3.5-3.5-3.5H391z M30,26.5c-1.9,0-3.5,1.6-3.5,3.5v90c0,1.9,1.6,3.5,3.5,3.5h331c1.9,0,3.5-1.6,3.5-3.5V30
	c0-1.9-1.6-3.5-3.5-3.5H30z"/>
<path class="st1" d="M497,7c4.4,0,8,3.6,8,8v482c0,4.4-3.6,8-8,8H15c-4.4,0-8-3.6-8-8V15c0-4.4,3.6-8,8-8H497 M391,127h91
	c3.9,0,7-3.1,7-7V30c0-3.9-3.1-7-7-7h-91c-3.9,0-7,3.1-7,7v90C384,123.9,387.1,127,391,127 M30,127h331c3.9,0,7-3.1,7-7V30
	c0-3.9-3.1-7-7-7H30c-3.9,0-7,3.1-7,7v90C23,123.9,26.1,127,30,127 M30,489h452c3.9,0,7-3.1,7-7V150c0-3.9-3.1-7-7-7H30
	c-3.9,0-7,3.1-7,7v332C23,485.9,26.1,489,30,489 M497,0H15C6.7,0,0,6.7,0,15v482c0,8.3,6.7,15,15,15h482c8.3,0,15-6.7,15-15V15
	C512,6.7,505.3,0,497,0L497,0z M391,120V30h91v90H391L391,120z M30,120V30h331v90H30L30,120z M30,482V150h452v332H30L30,482z"/>
<g>
	<path class="st0" d="M76,86.5c-6.3,0-11.5-5.2-11.5-11.5S69.7,63.5,76,63.5h30c6.3,0,11.5,5.2,11.5,11.5s-5.2,11.5-11.5,11.5H76z"
		/>
	<path class="st1" d="M106,67c4.4,0,8,3.6,8,8s-3.6,8-8,8H76c-4.4,0-8-3.6-8-8s3.6-8,8-8H106 M106,60H76c-8.3,0-15,6.7-15,15
		s6.7,15,15,15h30c8.3,0,15-6.7,15-15S114.3,60,106,60L106,60z"/>
</g>
<g>
	<path class="st0" d="M166,86.5c-6.3,0-11.5-5.2-11.5-11.5s5.2-11.5,11.5-11.5h30c6.3,0,11.5,5.2,11.5,11.5s-5.2,11.5-11.5,11.5H166
		z"/>
	<path class="st1" d="M196,67c4.4,0,8,3.6,8,8s-3.6,8-8,8h-30c-4.4,0-8-3.6-8-8s3.6-8,8-8H196 M196,60h-30c-8.3,0-15,6.7-15,15
		s6.7,15,15,15h30c8.3,0,15-6.7,15-15S204.3,60,196,60L196,60z"/>
</g>
<g>
	<path class="st0" d="M256,86.5c-6.3,0-11.5-5.2-11.5-11.5s5.2-11.5,11.5-11.5h30c6.3,0,11.5,5.2,11.5,11.5s-5.2,11.5-11.5,11.5H256
		z"/>
	<path class="st1" d="M286,67c4.4,0,8,3.6,8,8s-3.6,8-8,8h-30c-4.4,0-8-3.6-8-8s3.6-8,8-8H286 M286,60h-30c-8.3,0-15,6.7-15,15
		s6.7,15,15,15h30c8.3,0,15-6.7,15-15S294.3,60,286,60L286,60z"/>
</g>
<g>
	<path class="st0" d="M316,328.5c-6.3,0-11.5-5.2-11.5-11.5v-18.5H286c-6.3,0-11.5-5.2-11.5-11.5s5.2-11.5,11.5-11.5h18.5V197
		c0-6.3,5.2-11.5,11.5-11.5s11.5,5.2,11.5,11.5v78.5H346c6.3,0,11.5,5.2,11.5,11.5s-5.2,11.5-11.5,11.5h-18.5V317
		C327.5,323.3,322.3,328.5,316,328.5z"/>
	<path class="st1" d="M316,189c4.4,0,8,3.6,8,8v75v7h7h15c4.4,0,8,3.6,8,8s-3.6,8-8,8h-15h-7v7v15c0,4.4-3.6,8-8,8s-8-3.6-8-8v-15
		v-7h-7h-15c-4.4,0-8-3.6-8-8s3.6-8,8-8h15h7v-7v-75C308,192.6,311.6,189,316,189 M316,182c-8.3,0-15,6.7-15,15v75h-15
		c-8.3,0-15,6.7-15,15s6.7,15,15,15h15v15c0,8.3,6.7,15,15,15s15-6.7,15-15v-15h15c8.3,0,15-6.7,15-15s-6.7-15-15-15h-15v-75
		C331,188.7,324.3,182,316,182L316,182z"/>
</g>
<g>
	<path class="st0" d="M406,328.5c-6.3,0-11.5-5.2-11.5-11.5v-78.5H376c-6.3,0-11.5-5.2-11.5-11.5s5.2-11.5,11.5-11.5h18.5V197
		c0-6.3,5.2-11.5,11.5-11.5s11.5,5.2,11.5,11.5v18.5H436c6.3,0,11.5,5.2,11.5,11.5s-5.2,11.5-11.5,11.5h-18.5V317
		C417.5,323.3,412.3,328.5,406,328.5z"/>
	<path class="st1" d="M406,189c4.4,0,8,3.6,8,8v15v7h7h15c4.4,0,8,3.6,8,8s-3.6,8-8,8h-15h-7v7v75c0,4.4-3.6,8-8,8s-8-3.6-8-8v-75
		v-7h-7h-15c-4.4,0-8-3.6-8-8s3.6-8,8-8h15h7v-7v-15C398,192.6,401.6,189,406,189 M406,182c-8.3,0-15,6.7-15,15v15h-15
		c-8.3,0-15,6.7-15,15s6.7,15,15,15h15v75c0,8.3,6.7,15,15,15s15-6.7,15-15v-75h15c8.3,0,15-6.7,15-15s-6.7-15-15-15h-15v-15
		C421,188.7,414.3,182,406,182L406,182z"/>
</g>
<g>
	<path class="st0" d="M76,328.5c-6.3,0-11.5-5.2-11.5-11.5V197c0-6.3,5.2-11.5,11.5-11.5s11.5,5.2,11.5,11.5v62.2l40.4-40.4
		c2.2-2.2,5.1-3.4,8.1-3.4s6,1.2,8.1,3.4l21.9,21.9l51.9-51.9c2.2-2.2,5.1-3.4,8.1-3.4c3.1,0,6,1.2,8.1,3.4c2.2,2.2,3.4,5.1,3.4,8.1
		c0,3.1-1.2,6-3.4,8.1l-60,60c-2.2,2.2-5.1,3.4-8.1,3.4s-6-1.2-8.1-3.4L136,243.3l-48.5,48.5v13.7H226c6.3,0,11.5,5.2,11.5,11.5
		s-5.2,11.5-11.5,11.5H76z"/>
	<path class="st1" d="M226,189c2.1,0,4.1,0.8,5.7,2.3c1.5,1.5,2.3,3.5,2.3,5.7c0,2.1-0.8,4.1-2.3,5.7l-60,60
		c-1.5,1.5-3.5,2.3-5.7,2.3c-2.1,0-4.1-0.8-5.7-2.3l-19.4-19.4l-4.9-4.9l-4.9,4.9l-45,45l-2.1,2.1v2.9v8.8v7h7h135c4.4,0,8,3.6,8,8
		s-3.6,8-8,8H76c-4.4,0-8-3.6-8-8V197c0-4.4,3.6-8,8-8s8,3.6,8,8v53.8v16.9l11.9-11.9l34.4-34.4c1.5-1.5,3.5-2.3,5.7-2.3
		c2.1,0,4.1,0.8,5.7,2.3l19.4,19.4l4.9,4.9l4.9-4.9l49.4-49.4C221.9,189.8,223.9,189,226,189 M76,182c-8.3,0-15,6.7-15,15v120
		c0,8.3,6.7,15,15,15h150c8.3,0,15-6.7,15-15s-6.7-15-15-15H91v-8.8l45-45l19.4,19.4c2.9,2.9,6.8,4.4,10.6,4.4s7.7-1.5,10.6-4.4
		l60-60c5.9-5.9,5.9-15.4,0-21.2c-2.9-2.9-6.8-4.4-10.6-4.4s-7.7,1.5-10.6,4.4L166,235.8l-19.4-19.4c-2.9-2.9-6.8-4.4-10.6-4.4
		s-7.7,1.5-10.6,4.4L91,250.8V197C91,188.7,84.3,182,76,182L76,182z"/>
</g>
<g>
	<path class="st0" d="M76,448.5c-6.3,0-11.5-5.2-11.5-11.5v-60c0-6.3,5.2-11.5,11.5-11.5h150c6.3,0,11.5,5.2,11.5,11.5v60
		c0,6.3-5.2,11.5-11.5,11.5H76z M87.5,425.5h127v-37h-127V425.5z"/>
	<path class="st1" d="M226,369c4.4,0,8,3.6,8,8v60c0,4.4-3.6,8-8,8H76c-4.4,0-8-3.6-8-8v-60c0-4.4,3.6-8,8-8H226 M84,429h7h120h7v-7
		v-30v-7h-7H91h-7v7v30V429 M226,362H76c-8.3,0-15,6.7-15,15v60c0,8.3,6.7,15,15,15h150c8.3,0,15-6.7,15-15v-60
		C241,368.7,234.3,362,226,362L226,362z M91,422v-30h120v30H91L91,422z"/>
</g>
<g>
	<path class="st0" d="M346,388.5c-6.3,0-11.5-5.2-11.5-11.5s5.2-11.5,11.5-11.5h90c6.3,0,11.5,5.2,11.5,11.5s-5.2,11.5-11.5,11.5
		H346z"/>
	<path class="st1" d="M436,369c4.4,0,8,3.6,8,8s-3.6,8-8,8h-90c-4.4,0-8-3.6-8-8s3.6-8,8-8H436 M436,362h-90c-8.3,0-15,6.7-15,15
		s6.7,15,15,15h90c8.3,0,15-6.7,15-15S444.3,362,436,362L436,362z"/>
</g>
<g>
	<path class="st0" d="M286,448.5c-6.3,0-11.5-5.2-11.5-11.5s5.2-11.5,11.5-11.5h90c6.3,0,11.5,5.2,11.5,11.5s-5.2,11.5-11.5,11.5
		H286z"/>
	<path class="st1" d="M376,429c4.4,0,8,3.6,8,8s-3.6,8-8,8h-90c-4.4,0-8-3.6-8-8s3.6-8,8-8H376 M376,422h-90c-8.3,0-15,6.7-15,15
		s6.7,15,15,15h90c8.3,0,15-6.7,15-15S384.3,422,376,422L376,422z"/>
</g>
</svg>
