<?xml version="1.0" encoding="utf-8"?>
<!-- Generator: Adobe Illustrator 23.0.3, SVG Export Plug-In . SVG Version: 6.00 Build 0)  -->
<svg version="1.1" id="Camada_1" xmlns="http://www.w3.org/2000/svg" xmlns:xlink="http://www.w3.org/1999/xlink" x="0px" y="0px"
	 viewBox="0 0 130 124.5" style="enable-background:new 0 0 130 124.5;" xml:space="preserve">
<style type="text/css">
	.st0{fill:#002E6E;}
</style>
<g>
	<path class="st0" d="M115.4,71.4l-0.7,0.4c-2.7-3.3-7.4-4.5-10.9-2.7c0,0,0,0,0,0l-1.6,0.8c-3.9-3.3-9.3-3.8-13.7-1.2L80,73.2H68.7
		c-2.4,0-4.9-0.6-7.1-1.6l-1.6-0.8c-9-4.4-19.7-3.3-27.7,2.7c0,0-0.1,0.1-0.1,0.1L28.5,77c-1.4,1.3-3.1,2.2-4.9,2.7l-2.1-7
		c-0.2-0.7-0.9-1.2-1.6-1.2H1.7c-1,0-1.8,0.9-1.7,1.9l6,49.6c0.1,0.8,0.8,1.5,1.7,1.5H35c1.1,0,1.9-1.1,1.6-2.2L33,110.6l11.1-7
		c1.5-0.8,3.2-1.1,4.9-0.6c0,0,0.1,0,0.1,0l22.6,4.2c6.2,1.1,12.5,0.2,18.1-2.6c0.1,0,0.1-0.1,0.2-0.1l39.2-26.9
		c0.7-0.5,1-1.5,0.5-2.3C126.8,70.3,120.5,68.6,115.4,71.4L115.4,71.4z M105.4,72c2.1-1,4.7-0.2,6.3,1.4l-14.9,8l-0.9,0.5
		c-0.5-1.3-1.2-2.6-2-3.7L105.4,72z M90.1,71.6C90.1,71.6,90.2,71.6,90.1,71.6c2.7-1.6,6.1-1.6,8.8,0.1l-7.6,4.1
		c-1.4-1.1-3.1-1.8-4.8-2.2L90.1,71.6z M9.2,121.1L3.6,74.9h15l14.1,46.2L9.2,121.1L9.2,121.1z M88.3,101.6
		c-4.9,2.4-10.5,3.2-15.9,2.2l-22.6-4.2c-2.5-0.6-5.1-0.3-7.3,1c0,0-0.1,0-0.1,0L32,107.2L24.6,83c2.3-0.7,4.4-1.9,6.2-3.4l3.7-3.3
		c7-5.3,16.3-6.2,24.2-2.3l1.6,0.8c2.7,1.3,5.6,2,8.5,2h15.1c4.6,0,8.5,3.3,9.3,7.7l-10.9-0.5c-4-0.2-7.9,0-11.9,0.5
		c-2.2,0.3-1.7,3.6,0.5,3.3c3.7-0.5,7.5-0.7,11.3-0.5l12.9,0.6c0,0,0.1,0,0.1,0c0.9,0,1.7-0.8,1.7-1.7c0-0.3,0-0.5,0-0.8l1.8-0.9
		l18.6-10c2.9-1.6,6.6-1,8.9,1.4L88.3,101.6z"/>
	<path class="st0" d="M14.6,114.1c0,2.2,1.3,4.1,3.3,4.9c2,0.8,4.3,0.4,5.8-1.2c1.5-1.5,2-3.8,1.2-5.8c-0.8-2-2.8-3.3-4.9-3.3
		C17,108.8,14.6,111.2,14.6,114.1L14.6,114.1z M19.9,112.2c1.7,0,2.6,2.1,1.4,3.3c-1.2,1.2-3.3,0.4-3.3-1.4
		C18,113.1,18.8,112.2,19.9,112.2L19.9,112.2z"/>
	<path class="st0" d="M98.9,0H49.7c-3,0-5.5,2.5-5.5,5.5v49.2c0,3,2.5,5.5,5.5,5.5h49.2c3,0,5.5-2.5,5.5-5.5V5.5
		C104.4,2.5,102,0,98.9,0L98.9,0z M101.7,54.7c0,1.5-1.2,2.7-2.7,2.7H49.7c-1.5,0-2.7-1.2-2.7-2.7v-41h54.7V54.7z M101.7,10.9H47
		V5.5c0-1.5,1.2-2.7,2.7-2.7h49.2c1.5,0,2.7,1.2,2.7,2.7V10.9z"/>
	<path class="st0" d="M52.4,6.8c0,0.8-0.6,1.4-1.4,1.4s-1.4-0.6-1.4-1.4s0.6-1.4,1.4-1.4C51.8,5.5,52.4,6.1,52.4,6.8L52.4,6.8z"/>
	<path class="st0" d="M57.9,6.8c0,0.8-0.6,1.4-1.4,1.4s-1.4-0.6-1.4-1.4s0.6-1.4,1.4-1.4C57.3,5.5,57.9,6.1,57.9,6.8L57.9,6.8z"/>
	<path class="st0" d="M63.4,6.8c0,0.8-0.6,1.4-1.4,1.4s-1.4-0.6-1.4-1.4s0.6-1.4,1.4-1.4S63.4,6.1,63.4,6.8L63.4,6.8z"/>
	<path class="st0" d="M54.4,53.5h39.8c1.1,0,2-0.9,2-2V19.6c0-1.1-0.9-2-2-2H54.4c-1.1,0-2,0.9-2,2v31.9
		C52.4,52.6,53.3,53.5,54.4,53.5L54.4,53.5z M56.4,21.6h35.9v27.9H56.4V21.6z"/>
	<path class="st0" d="M66.4,25.6c-3.3,0-6,2.7-6,6v12c0,1.1,0.9,2,2,2s2-0.9,2-2v-2h4v2c0,1.1,0.9,2,2,2s2-0.9,2-2v-12
		C72.3,28.3,69.7,25.6,66.4,25.6L66.4,25.6z M68.4,37.6h-4v-6c0-1.1,0.9-2,2-2s2,0.9,2,2C68.4,31.6,68.4,37.6,68.4,37.6z"/>
	<path class="st0" d="M82.3,25.6h-4c-1.1,0-2,0.9-2,2v15.9c0,1.1,0.9,2,2,2h4c3.3,0,6-2.7,6-6v-8C88.3,28.3,85.6,25.6,82.3,25.6
		L82.3,25.6z M84.3,39.6c0,1.1-0.9,2-2,2h-2v-12h2c1.1,0,2,0.9,2,2V39.6z"/>
</g>
</svg>
