<?xml version="1.0" encoding="utf-8"?>
<!-- Generator: Adobe Illustrator 23.0.3, SVG Export Plug-In . SVG Version: 6.00 Build 0)  -->
<svg version="1.1" id="Camada_1" xmlns="http://www.w3.org/2000/svg" xmlns:xlink="http://www.w3.org/1999/xlink" x="0px" y="0px"
	 viewBox="0 0 50 50" style="enable-background:new 0 0 50 50;" xml:space="preserve">
<style type="text/css">
	.st0{fill:#002E6E;}
</style>
<g>
	<path class="st0" d="M5.4,39.7h18.9v8.7h-9c-0.9,0-0.9,1.4,0,1.4h20c0.9,0,0.9-1.4,0-1.4h-9.6v-8.7h18.9c3,0,5.4-2.4,5.4-5.4V5.6
		c0-3-2.4-5.4-5.4-5.4H5.4C2.4,0.2,0,2.6,0,5.6v28.7C0,37.3,2.4,39.7,5.4,39.7L5.4,39.7z M5.4,1.6h39.2c2.2,0,4,1.8,4,4v23.8H1.4
		V5.6C1.4,3.4,3.2,1.6,5.4,1.6L5.4,1.6z M1.4,30.9h47.2v3.4c0,2.2-1.8,4-4,4H5.4c-2.2,0-4-1.8-4-4C1.4,34.3,1.4,30.9,1.4,30.9z"/>
	<path class="st0" d="M10.8,20.2c2.2,0,4.2-1.1,5.4-3c1.2-1.9,1.3-4.2,0.3-6.2s-2.9-3.3-5.1-3.5C9.3,7.3,7.1,8.2,5.8,9.9
		c-1.5,1.9-1.8,4.5-0.7,6.7C6.2,18.8,8.4,20.2,10.8,20.2L10.8,20.2z M6.9,10.8c1.5-1.9,4.1-2.5,6.3-1.3c2.1,1.2,3.1,3.7,2.3,6
		s-3.1,3.7-5.5,3.3c-2.4-0.4-4.1-2.5-4.1-4.9C5.8,12.7,6.2,11.6,6.9,10.8L6.9,10.8z"/>
	<path class="st0" d="M9.4,15.6c0.2,0.3,0.7,0.3,1,0.1l3.2-2.6c0.3-0.2,0.4-0.7,0.1-1c-0.2-0.3-0.7-0.3-1-0.1L10,14.1l-0.9-1.1
		c-0.3-0.3-0.7-0.3-1-0.1c-0.3,0.3-0.3,0.7-0.1,1L9.4,15.6z"/>
	<path class="st0" d="M5.1,23.2h11.2c0.9,0,0.9-1.4,0-1.4H5.1C4.2,21.8,4.2,23.2,5.1,23.2L5.1,23.2z"/>
	<path class="st0" d="M5.1,26.8h6.6c0.9,0,0.9-1.4,0-1.4H5.1C4.2,25.4,4.2,26.8,5.1,26.8L5.1,26.8z"/>
	<path class="st0" d="M23.4,19.2l-0.2,3.6c0,0.3,0.2,0.6,0.5,0.7l3.5,0.9l2,3c0.2,0.3,0.5,0.4,0.8,0.3l3.4-1.3l3.4,1.3
		c0.3,0.1,0.7,0,0.8-0.3l2-3l3.5-0.9c0.3-0.1,0.5-0.4,0.5-0.7l-0.2-3.6l2.3-2.8c0.2-0.3,0.2-0.6,0-0.9l-2.3-2.8l0.2-3.6
		c0-0.3-0.2-0.6-0.5-0.7l-3.5-0.9l-2-3c-0.2-0.3-0.5-0.4-0.8-0.3l-3.4,1.3l-3.4-1.3c-0.3-0.1-0.7,0-0.8,0.3l-2,3l-3.5,0.9
		c-0.3,0.1-0.5,0.4-0.5,0.7l0.2,3.6l-2.3,2.8c-0.2,0.3-0.2,0.6,0,0.9L23.4,19.2z M24.7,13.4c0.1-0.1,0.2-0.3,0.2-0.5l-0.2-3.3
		l3.2-0.9c0.2,0,0.3-0.1,0.4-0.3l1.8-2.8l3.1,1.2c0.2,0.1,0.3,0.1,0.5,0l3.1-1.2l1.8,2.8c0.1,0.1,0.2,0.3,0.4,0.3l3.2,0.9l-0.2,3.3
		c0,0.2,0,0.3,0.2,0.5l2.1,2.6l-2.1,2.6c-0.1,0.1-0.2,0.3-0.2,0.5l0.2,3.3L39,23.2c-0.2,0-0.3,0.2-0.4,0.3l-1.8,2.8l-3.1-1.2
		c-0.2-0.1-0.3-0.1-0.5,0l-3.1,1.2l-1.8-2.8c-0.1-0.1-0.2-0.3-0.4-0.3l-3.2-0.9l0.2-3.3c0-0.2,0-0.3-0.2-0.5l-2.1-2.6L24.7,13.4z"/>
	<path class="st0" d="M28.8,19.1c0.3,0,0.5-0.2,0.5-0.3l0.4-1.3h2.2l0.4,1.3c0,0.1,0.1,0.3,0.5,0.3c0.4,0,0.9-0.2,0.9-0.6
		c0,0,0-0.1,0-0.1l-1.9-6.2c-0.1-0.3-0.5-0.5-0.9-0.5c-0.3,0-0.8,0.1-0.9,0.5L28,18.4c0,0,0,0.1,0,0.1
		C27.9,18.9,28.4,19.1,28.8,19.1L28.8,19.1z M29.9,16.4l0.8-2.7l0.8,2.7H29.9z"/>
	<path class="st0" d="M34.7,19.1h1.7c1.5,0,2.4-0.8,2.4-2.3v-2.7c0-1.5-0.8-2.3-2.4-2.3h-1.7c-0.3,0-0.6,0.2-0.6,0.4v6.4
		C34.1,18.9,34.3,19.1,34.7,19.1L34.7,19.1z M37.4,16.8c0,0.7-0.3,1.1-1,1.1h-1V13h1c0.6,0,1,0.4,1,1.1V16.8z"/>
</g>
</svg>
