<?xml version="1.0" encoding="utf-8"?>
<!-- Generator: Adobe Illustrator 23.0.3, SVG Export Plug-In . SVG Version: 6.00 Build 0)  -->
<svg version="1.1" id="Camada_1" xmlns="http://www.w3.org/2000/svg" xmlns:xlink="http://www.w3.org/1999/xlink" x="0px" y="0px"
	 viewBox="0 0 50 50" style="enable-background:new 0 0 50 50;" xml:space="preserve">
<style type="text/css">
	.st0{fill:#002E6E;}
	.st1{clip-path:url(#SVGID_2_);fill:#002E6E;}
	.st2{clip-path:url(#SVGID_4_);fill:#002E6E;}
	.st3{clip-path:url(#SVGID_6_);fill:#002E6E;}
</style>
<rect x="45" y="17.5" class="st0" width="1.7" height="14.2"/>
<rect x="40" y="17.5" class="st0" width="1.7" height="14.2"/>
<g>
	<defs>
		<rect id="SVGID_1_" y="0" width="50" height="50"/>
	</defs>
	<clipPath id="SVGID_2_">
		<use xlink:href="#SVGID_1_"  style="overflow:visible;"/>
	</clipPath>
	<path class="st1" d="M30,32.5v-1.7c-0.5,0-0.8-0.4-0.8-0.8c0-0.5,0.4-0.8,0.8-0.8v-1.7H19.2c-0.5,0-0.8-0.4-0.8-0.8
		c0-0.5,0.4-0.8,0.8-0.8h11.7c0.4,0,0.7-0.3,0.8-0.6l1.7-6.7c0.1-0.2,0-0.5-0.2-0.7c-0.2-0.2-0.4-0.3-0.7-0.3H18.1l-0.7-2.7
		c-0.1-0.4-0.4-0.6-0.8-0.6h-2.5v1.7H16l0.7,2.7l1.5,5.8c-0.8,0.4-1.4,1.2-1.5,2.1c-0.1,0.9,0.4,1.8,1.2,2.3
		c-0.2,0.4-0.3,0.8-0.3,1.2c0,1.4,1.1,2.5,2.5,2.5s2.5-1.1,2.5-2.5c0-0.3-0.1-0.6-0.2-0.8h5.3c-0.1,0.3-0.2,0.5-0.2,0.8
		C27.5,31.4,28.6,32.5,30,32.5L30,32.5z M28.3,19.2h3.1L31,20.8h-2.7L28.3,19.2L28.3,19.2z M28.3,22.5h2.3l-0.4,1.7h-1.8V22.5z
		 M23.3,19.2h3.3v1.7h-3.3V19.2z M23.3,22.5h3.3v1.7h-3.3V22.5z M21.7,24.2h-1.8l-0.4-1.7h2.3V24.2z M21.7,19.2v1.7H19l-0.4-1.7
		H21.7z M20,30.8c-0.5,0-0.8-0.4-0.8-0.8c0-0.5,0.4-0.8,0.8-0.8s0.8,0.4,0.8,0.8S20.5,30.8,20,30.8L20,30.8z"/>
</g>
<g>
	<defs>
		<rect id="SVGID_3_" y="0" width="50" height="50"/>
	</defs>
	<clipPath id="SVGID_4_">
		<use xlink:href="#SVGID_3_"  style="overflow:visible;"/>
	</clipPath>
	<path class="st2" d="M50,49.2V36.4c0-1.5-1.1-2.8-2.6-3c-0.8-0.1-1.6,0.2-2.3,0.7c0,0-0.1,0.1-0.1,0.1c-0.5-0.6-1.3-0.9-2-0.9
		c-0.8,0-1.5,0.3-2.1,0.8h-0.1c-0.9-0.9-2.2-1.1-3.3-0.6v-4.7c0-1.5-1.1-2.8-2.6-3c-0.8-0.1-1.6,0.2-2.3,0.7s-1,1.3-1,2.2v11.5
		l-1.9-2.2c-1-1.2-2.8-1.4-4.1-0.4s-1.4,2.8-0.4,4.1l6.5,7.9c0.2,0.2,0.4,0.3,0.6,0.3h16.7C49.6,50,50,49.6,50,49.2L50,49.2z
		 M48.3,48.3H32.9l-6.2-7.6c-0.4-0.5-0.3-1.3,0.2-1.7c0.5-0.4,1.3-0.4,1.7,0.1l3.3,3.9c0.2,0.3,0.6,0.4,0.9,0.2
		c0.3-0.1,0.5-0.4,0.5-0.8V28.7c0-0.4,0.2-0.7,0.4-0.9c0.3-0.2,0.6-0.4,1-0.3c0.7,0.1,1.1,0.7,1.1,1.4v7.4c0,0.5,0.4,0.8,0.8,0.8
		s0.8-0.4,0.8-0.8c0-0.7,0.6-1.3,1.3-1.3s1.3,0.6,1.3,1.3c0,0.5,0.4,0.8,0.8,0.8s0.8-0.4,0.8-0.8c0-0.7,0.6-1.3,1.3-1.3
		s1.3,0.6,1.3,1.3c0,0.5,0.4,0.8,0.8,0.8s0.8-0.4,0.8-0.8c0-0.4,0.2-0.7,0.4-0.9c0.3-0.2,0.6-0.4,1-0.3c0.7,0.1,1.1,0.7,1.1,1.4
		L48.3,48.3L48.3,48.3z"/>
</g>
<g>
	<defs>
		<rect id="SVGID_5_" y="0" width="50" height="50"/>
	</defs>
	<clipPath id="SVGID_6_">
		<use xlink:href="#SVGID_5_"  style="overflow:visible;"/>
	</clipPath>
	<path class="st3" d="M1.7,28.7c0-1.5,0.6-2.8,1.7-3.8v5.9c0,0.3,0.2,0.7,0.5,0.8c0.3,0.1,0.7,0,0.9-0.2l5.8-6.4
		c0.3-0.3,0.7-0.5,1.1-0.5c0.4,0,0.9,0.2,1.2,0.5c0.6,0.6,0.6,1.5,0.1,2.1l-5.3,6.6c-0.3,0.3-0.2,0.8,0,1.1l0.4,0.5
		c2.3,2.7,2.1,6.7-0.4,9.2c-0.2,0.2-0.2,0.4-0.2,0.6v5h1.7v-4.7c2.4-2.6,2.9-6.4,1.3-9.5H30v-1.7H9.4l0,0l4.9-6.1c1-1.2,1-3-0.1-4.2
		s-2.8-1.4-4.2-0.5V9.2h13.3V7.5H7.5c-2.3,0-4.2,1.9-4.2,4.2v11.2C1.3,24.1,0,26.3,0,28.7V50h1.7C1.7,50,1.7,28.7,1.7,28.7z M5,23.3
		V11.7c0-1.4,1.1-2.5,2.5-2.5h0.8V25L5,28.7V23.3z"/>
</g>
<path class="st0" d="M28.3,15.8h18.3c1.8,0,3.3-1.5,3.3-3.3V3.3C50,1.5,48.5,0,46.7,0H28.3C26.5,0,25,1.5,25,3.3v9.2
	C25,14.3,26.5,15.8,28.3,15.8L28.3,15.8z M26.7,3.3c0-0.9,0.7-1.7,1.7-1.7h18.3c0.9,0,1.7,0.7,1.7,1.7v9.2c0,0.9-0.7,1.7-1.7,1.7
	H28.3c-0.9,0-1.7-0.7-1.7-1.7L26.7,3.3L26.7,3.3z"/>
<path class="st0" d="M29.2,3.3h1.7c0.5,0,0.8,0.4,0.8,0.8v1.7c0,0.5-0.4,0.8-0.8,0.8h-1.7c-0.5,0-0.8-0.4-0.8-0.8V4.2
	C28.3,3.7,28.7,3.3,29.2,3.3L29.2,3.3z"/>
<path class="st0" d="M38.3,10c0,1,0.6,1.9,1.5,2.3s2,0.2,2.7-0.4c1,0.9,2.5,0.9,3.5-0.1c0.9-1,0.9-2.5,0-3.5c-0.9-1-2.5-1-3.5-0.1
	c-0.7-0.7-1.8-0.8-2.7-0.4C38.9,8.1,38.3,9,38.3,10L38.3,10z M44.2,9.2c0.5,0,0.8,0.4,0.8,0.8s-0.4,0.8-0.8,0.8s-0.8-0.4-0.8-0.8
	S43.7,9.2,44.2,9.2L44.2,9.2z M40.8,9.2c0.5,0,0.8,0.4,0.8,0.8s-0.4,0.8-0.8,0.8S40,10.5,40,10S40.4,9.2,40.8,9.2L40.8,9.2z"/>
<rect x="28.3" y="10.8" class="st0" width="1.7" height="1.7"/>
<rect x="31.7" y="10.8" class="st0" width="1.7" height="1.7"/>
<rect x="35" y="10.8" class="st0" width="1.7" height="1.7"/>
<rect x="44.2" y="3.3" class="st0" width="1.7" height="1.7"/>
<rect x="40.8" y="3.3" class="st0" width="1.7" height="1.7"/>
<rect x="37.5" y="3.3" class="st0" width="1.7" height="1.7"/>
<rect x="12.5" y="10.8" class="st0" width="1.7" height="1.7"/>
<rect x="15.8" y="10.8" class="st0" width="1.7" height="1.7"/>
<rect x="19.2" y="10.8" class="st0" width="1.7" height="1.7"/>
</svg>
