<?xml version="1.0" encoding="utf-8"?>
<!-- Generator: Adobe Illustrator 23.0.3, SVG Export Plug-In . SVG Version: 6.00 Build 0)  -->
<svg version="1.1" id="Camada_1" xmlns="http://www.w3.org/2000/svg" xmlns:xlink="http://www.w3.org/1999/xlink" x="0px" y="0px"
	 viewBox="0 0 130 124.5" style="enable-background:new 0 0 130 124.5;" xml:space="preserve">
<style type="text/css">
	.st0{fill:#002E6E;}
	.st1{fill:#002E6E;stroke:#FFFFFF;stroke-miterlimit:10;}
	.st2{fill:#FFFFFF;}
</style>
<path class="st0" d="M36.3,78.4c0,1.7,1,3.3,2.6,3.9c1.6,0.7,3.4,0.3,4.6-0.9c1.2-1.2,1.6-3,0.9-4.6c-0.7-1.6-2.2-2.6-3.9-2.6
	C38.2,74.1,36.3,76,36.3,78.4L36.3,78.4z M40.5,76.8c1.4,0,2.1,1.7,1.1,2.6c-1,1-2.6,0.3-2.6-1.1C39,77.5,39.7,76.8,40.5,76.8
	L40.5,76.8z"/>
<path class="st1" d="M102.6,62.5c0-1.3-0.4-2.6-1.1-3.6c1.7-1.2,2.8-3.1,2.8-5.3c0-3.5-2.9-6.4-6.4-6.4H81l1.1-2.4
	c1.6-3.5,2.4-7.2,2.4-11v-4.7c0-3.6-3-6.6-6.6-6.6c-2.7,0-5.1,1.6-6.1,4.1c0,0.1-1.6,4.6-1.6,4.6c-1.4,4-3.8,7.6-7.1,10.3L55.2,48
	H42.1v3.9H56c0.5,0,0.9-0.2,1.3-0.5l8.4-7c3.8-3.2,6.7-7.3,8.3-12l1.6-4.6c0.4-0.9,1.4-1.5,2.4-1.5c1.5,0,2.7,1.2,2.7,2.7v4.7
	c0,3.3-0.7,6.5-2,9.5l-2.3,5.1c-0.2,0.4-0.2,0.9-0.1,1.4c0,0,0.4,1.4,1.9,1.4h19.9c1.4,0,2.5,1.1,2.5,2.5s-1.1,2.5-2.5,2.5H95
	c-1.1,0-2,0.9-2,2s0.9,2,2,2h1.2c1.4,0,2.5,1.1,2.5,2.5c0,1.4-1.1,2.5-2.5,2.5h-2.8c-1.1,0-2,0.9-2,2s0.9,2,2,2h1.2
	c1.4,0,2.5,1.1,2.5,2.5s-1.1,2.5-2.5,2.5h-2.8c-1.1,0-2,0.9-2,2s0.9,2,2,2H93c1.4,0,2.5,1.1,2.5,2.5s-1.1,2.5-2.5,2.5h-7h-2.7h-9
	c-5.8,0-11.7-1.3-17-3.9l-2.9-1.4c-0.3-0.1-0.6-0.2-0.9-0.2h-2.9v3.9h2.5l2.4,1.2c5.8,2.8,12.3,4.3,18.7,4.3h9H86h6.9
	c3.5,0,6.4-2.9,6.4-6.4c0-1.3-0.4-2.6-1.1-3.6c1.7-1.2,2.8-3.1,2.8-5.3c0-1.3-0.4-2.6-1.1-3.6C101.5,66.6,102.6,64.6,102.6,62.5z"/>
<path class="st0" d="M52.8,81.6L52.8,81.6l-2.7-8.8l0,0l-5.9-19.4l0,0l-0.8-2.6l0,0L42,46.3l0,0l0,0l-0.3-1.1c-0.2-0.6-0.7-1-1.3-1
	H26c-0.8,0-1.4,0.7-1.3,1.5l4.8,39.6c0.1,0.7,0.7,1.2,1.3,1.2h21.7c0.9,0,1.6-0.9,1.3-1.7L52.8,81.6z M32,83.9L32,83.9L27.5,47h12
	l11.3,36.9H32z"/>
<path class="st0" d="M83.9,123.8c-0.4,0-0.7-0.1-1-0.2L65,116.7l-17.9,6.8c-0.3,0.1-0.7,0.2-1,0.2l0,0c-1,0-1.9-0.5-2.5-1.3
	l-10.5-16.1l-18.5-5c-1.3-0.4-2.2-1.6-2.2-3l1-19.2l-12-15c-0.9-1.1-0.9-2.6,0-3.7l12-15l-1-19.2c-0.1-1.4,0.8-2.6,2.2-3l18.5-5
	L43.7,2.1c0.5-0.8,1.5-1.3,2.4-1.3c0.4,0,0.7,0.1,1,0.2L65,7.8l17.9-6.9c0.3-0.1,0.7-0.2,1-0.2l0,0c1,0,1.9,0.5,2.4,1.3l10.5,16.1
	l18.5,5c1.3,0.4,2.2,1.6,2.2,3l-1,19.2l12,15c0.9,1.1,0.9,2.6,0,3.7l-12,15l1,19.2c0.1,1.4-0.8,2.6-2.2,3l-18.5,5l-10.5,16.1
	C85.9,123.3,84.9,123.8,83.9,123.8z M37.5,22.4c-0.4,0.6-1,1-1.7,1.2l-17.3,4.7l0.9,18c0,0.7-0.2,1.4-0.6,2l-11.2,14l11.2,14
	c0.5,0.6,0.7,1.3,0.6,2l-0.9,18l17.3,4.7c0.7,0.2,1.3,0.6,1.7,1.2l9.8,15.1l16.7-6.4c0.3-0.1,0.7-0.2,1-0.2c0.4,0,0.7,0.1,1,0.2
	l16.7,6.4l9.8-15.1c0.4-0.6,1-1,1.7-1.2l17.3-4.7l-0.9-18c0-0.7,0.2-1.4,0.6-2l11.2-14l-11.2-14c-0.5-0.6-0.7-1.3-0.6-2l0.9-18
	l-17.3-4.7c-0.7-0.2-1.3-0.6-1.7-1.2L82.8,7.3l-16.7,6.4c-0.3,0.1-0.7,0.2-1,0.2c-0.4,0-0.7-0.1-1-0.2L47.3,7.3L37.5,22.4z"/>
<path class="st2" d="M83.9,1.5L83.9,1.5c0.7,0,1.4,0.4,1.8,1L96,18.4l0.3,0.5l0.6,0.2l18.2,5c1,0.3,1.7,1.2,1.6,2.2l-0.9,18.9v0.6
	l0.4,0.4L128,61c0.6,0.8,0.6,2,0,2.8l-11.8,14.8l-0.4,0.4v0.6l0.9,18.9c0.1,1-0.6,2-1.6,2.2l-18.2,5l-0.6,0.2l-0.3,0.5L85.8,122
	c-0.4,0.6-1.1,1-1.8,1c-0.3,0-0.5,0-0.8-0.1l-17.6-6.7l-0.5-0.2l-0.5,0.2L47,122.9c-0.2,0.1-0.5,0.1-0.8,0.1c-0.7,0-1.4-0.4-1.8-1
	L34,106.2l-0.3-0.5l-0.6-0.2l-18.2-5c-1-0.3-1.7-1.2-1.6-2.2l0.9-18.9v-0.6L14,78.4L2.1,63.6c-0.6-0.8-0.6-2,0-2.8L14,46.1l0.4-0.4
	v-0.6l-0.9-18.9c-0.1-1,0.6-2,1.6-2.2l18.2-5l0.6-0.2l0.3-0.5L44.3,2.5c0.4-0.6,1.1-1,1.8-1c0.3,0,0.5,0,0.8,0.1l17.6,6.8L65,8.6
	l0.5-0.2l17.6-6.8C83.4,1.5,83.7,1.5,83.9,1.5 M47,118.1l1.1-0.4l16.2-6.2c0.2-0.1,0.5-0.1,0.8-0.1s0.5,0,0.8,0.1l16.1,6.2l1.1,0.4
	l0.7-1l9.5-14.6c0.3-0.5,0.7-0.8,1.3-0.9l16.7-4.5l1.2-0.3l-0.1-1.2l-0.9-17.4c0-0.5,0.1-1.1,0.5-1.5l10.8-13.5l0.8-0.9l-0.8-0.9
	L112,47.9c-0.3-0.4-0.5-0.9-0.5-1.5l0.9-17.4l0.1-1.2l-1.2-0.3L94.6,23c-0.5-0.1-1-0.5-1.2-0.9L83.8,7.4l-0.7-1L82,6.8L65.8,13
	c-0.2,0.1-0.5,0.1-0.8,0.1s-0.5,0-0.8-0.1L48.1,6.8L47,6.4l-0.7,1L36.9,22c-0.3,0.5-0.7,0.8-1.3,0.9l-16.7,4.5l-1.2,0.3l0.1,1.2
	l0.9,17.4c0,0.5-0.1,1.1-0.5,1.5L7.4,61.3l-0.8,0.9l0.8,0.9l10.8,13.5c0.3,0.4,0.5,1,0.5,1.5l-0.9,17.4l-0.1,1.2l1.2,0.3l16.7,4.5
	c0.5,0.1,1,0.5,1.2,0.9l9.4,14.6L47,118.1 M83.9,0c-0.4,0-0.9,0.1-1.3,0.2L65,7L47.4,0.2C47,0.1,46.6,0,46.1,0
	c-1.2,0-2.4,0.6-3.1,1.7L32.7,17.5l-18.2,5c-1.7,0.5-2.8,2-2.7,3.7l0.9,18.9L1,59.9c-1.1,1.4-1.1,3.3,0,4.6l11.8,14.8l-0.9,18.9
	c-0.1,1.7,1,3.3,2.7,3.7l18.2,5L43,122.8c0.7,1.1,1.9,1.7,3.1,1.7c0.4,0,0.9-0.1,1.3-0.2l17.6-6.7l17.6,6.7c0.4,0.2,0.9,0.2,1.3,0.2
	c1.2,0,2.4-0.6,3.1-1.7L97.3,107l18.2-5c1.7-0.5,2.8-2,2.7-3.7l-0.9-18.9l11.8-14.8c1.1-1.4,1.1-3.3,0-4.6l-11.8-14.8l0.9-18.9
	c0.1-1.7-1-3.3-2.7-3.7l-18.2-5L87,1.7C86.3,0.6,85.2,0,83.9,0L83.9,0z M65,14.6c0.4,0,0.9-0.1,1.3-0.2l16.1-6.2l9.5,14.6
	c0.5,0.8,1.2,1.3,2.1,1.5l16.7,4.5l-0.9,17.4c0,0.9,0.2,1.8,0.8,2.5l10.8,13.5l-10.8,13.5c-0.6,0.7-0.9,1.6-0.8,2.5l0.9,17.4
	L94,100.1c-0.9,0.2-1.6,0.8-2.1,1.6l-9.5,14.6l-16.1-6.2c-0.4-0.2-0.9-0.2-1.3-0.2s-0.9,0.1-1.3,0.2l-16.1,6.2l-9.4-14.6
	c-0.5-0.8-1.2-1.3-2.1-1.5l-16.7-4.5l0.9-17.4c0-0.9-0.2-1.8-0.8-2.5l-11-13.5l10.8-13.5c0.6-0.7,0.9-1.6,0.8-2.5l-0.9-17.4L36,24.3
	c0.9-0.2,1.6-0.8,2.1-1.5l9.4-14.6l16.1,6.2C64.2,14.6,64.6,14.6,65,14.6L65,14.6z"/>
</svg>
